:SAMPLES-PER-SECOND 30
:FRAME-RANGE 1-744
:FULLY-SPECIFIED
:DEGREES
349
root  -19.9383 39.348 95.1761 7.8949 65.8392 2.7995
RightUpLeg  -9.74702 -8.89252 -2.76375
RightLeg  12.0969 -18.8513 -0.79345
RightFoot  -4.49106 -0.136485 1.76941
RightToes  -5.28216e-011 1.2921e-014 -6.02303e-014
Spine  -4.41971 2.4822 9.80294
Spine1  5.7983 3.55612 -6.14574
HEad  15.5749 22.2454 -6.07209
LeftShoulder1  0.831758 0.221056 -20.7975
LeftArm  -3.74421 4.23329 -44.1241
LeftForeArm  -16.1732 -23.4288 -5.80681
LeftHand  0.0481906 1.71669 -1.85287
RightShoulder  2.30225 4.8974 21.8731
RightArm  11.2263 27.9255 57.0712
RightForeArm  8.52736 22.6232 4.68436
RightHand  0.0158773 -5.91646 -8.64775
LeftUpLeg  -9.40158 -8.89987 -4.85277
LeftLeg  13.9442 8.57729 3.4992
LeftFoot  -11.0942 0.0723854 -2.71468
LeftToes  -9.4837e-011 -7.11147e-011 -1.07582e-011
350
root  -20.134 39.3524 95.4483 7.56738 66.524 2.12022
RightUpLeg  -9.83308 -7.9208 -2.00523
RightLeg  11.6185 -20.6175 -0.628026
RightFoot  -4.40178 -0.111801 1.35709
RightToes  -5.28216e-011 1.2921e-014 -6.02303e-014
Spine  -4.10894 2.70855 9.91599
Spine1  5.62143 3.87464 -6.47055
HEad  16.4838 20.2168 -4.73747
LeftShoulder1  0.793225 0.321735 -20.389
LeftArm  -9.79041 3.51476 -42.8148
LeftForeArm  -19.2952 -28.2767 -7.06228
LeftHand  0.107343 1.49687 -3.50216
RightShoulder  2.33143 5.18034 21.2445
RightArm  8.00452 30.202 57.3953
RightForeArm  7.25972 23.5759 4.67624
RightHand  -0.0240594 -5.37214 -6.66269
LeftUpLeg  -9.15444 -8.96081 -4.22496
LeftLeg  11.9616 4.7548 2.98386
LeftFoot  -9.28061 0.099333 -2.42679
LeftToes  -9.4837e-011 -7.11147e-011 -1.07582e-011
351
root  -20.3074 39.3533 95.6788 7.27275 67.0626 1.45203
RightUpLeg  -10.0804 -7.55071 -1.37848
RightLeg  11.37 -21.5673 -0.324455
RightFoot  -4.42503 -0.0709586 0.700403
RightToes  -5.28216e-011 1.2921e-014 -6.02303e-014
Spine  -3.92099 3.03421 9.96796
Spine1  5.46077 4.30416 -6.86189
HEad  17.6594 17.7692 -3.47545
LeftShoulder1  0.782052 0.268337 -19.4933
LeftArm  -14.0985 2.91383 -42.036
LeftForeArm  -23.0528 -33.9542 -8.75302
LeftHand  0.180896 1.49894 -5.73264
RightShoulder  2.37871 5.66309 20.2298
RightArm  3.45534 31.657 57.0201
RightForeArm  5.48427 25.9582 5.2853
RightHand  -0.0454602 -4.39493 -2.76344
LeftUpLeg  -9.20216 -7.86116 -3.53368
LeftLeg  10.8105 1.75087 2.59929
LeftFoot  -7.53835 0.0548086 -0.285942
LeftToes  -9.4837e-011 -7.11147e-011 -1.07582e-011
352
root  -20.4461 39.3517 95.8573 6.9079 67.5698 0.711441
RightUpLeg  -10.3052 -6.83386 -0.709419
RightLeg  11.0156 -22.8437 -0.309117
RightFoot  -4.26906 -0.0569271 0.465917
RightToes  -5.28216e-011 1.2921e-014 -6.02303e-014
Spine  -3.78158 3.28521 9.82983
Spine1  5.2669 4.60162 -7.02592
HEad  18.8028 15.1619 -2.24568
LeftShoulder1  0.749226 0.285455 -18.4795
LeftArm  -15.9438 2.66378 -41.4176
LeftForeArm  -24.2994 -40.5485 -10.924
LeftHand  0.24967 1.51524 -7.84822
RightShoulder  2.31004 5.60161 19.595
RightArm  1.15686 33.0998 55.9718
RightForeArm  3.67725 29.4088 6.19402
RightHand  -0.00382668 -3.85392 1.37725
LeftUpLeg  -9.35944 -6.56926 -2.86233
LeftLeg  10.0742 -0.00979433 2.35525
LeftFoot  -7.13743 0.0397531 0.0863984
LeftToes  -9.4837e-011 -7.11147e-011 -1.07582e-011
353
root  -20.5535 39.3459 95.9716 6.18204 68.376 -0.354004
RightUpLeg  -10.5151 -6.40498 -0.0811956
RightLeg  10.8466 -24.123 -0.291323
RightFoot  -4.15417 -0.0475915 0.310227
RightToes  -5.28216e-011 1.2921e-014 -6.02303e-014
Spine  -3.80078 3.20065 9.57407
Spine1  5.23318 4.48708 -6.90263
HEad  19.6793 12.851 -1.30531
LeftShoulder1  0.761228 0.150072 -17.7403
LeftArm  -15.9497 3.25809 -40.2377
LeftForeArm  -22.2527 -48.3294 -14.0414
LeftHand  0.248298 2.10505 -9.36786
RightShoulder  2.23563 5.58289 18.748
RightArm  1.21595 34.0689 54.486
RightForeArm  2.37052 33.9598 7.44413
RightHand  0.0212295 -4.17318 4.53232
LeftUpLeg  -9.81872 -5.59353 -2.1274
LeftLeg  9.91641 -1.61512 1.93077
LeftFoot  -6.47843 -0.00388007 1.00977
LeftToes  -9.4837e-011 -7.11147e-011 -1.07582e-011
354
root  -20.6348 39.3314 96.032 5.58171 69.127 -1.07536
RightUpLeg  -10.727 -6.34573 0.369634
RightLeg  11.113 -24.9054 -0.562181
RightFoot  -4.19319 -0.0558453 0.43325
RightToes  -5.28216e-011 1.2921e-014 -6.02303e-014
Spine  -3.81182 2.94134 8.83853
Spine1  5.38141 4.13922 -6.37496
HEad  20.5361 10.8619 -0.518052
LeftShoulder1  0.796467 -0.0682075 -17.1813
LeftArm  -15.4744 4.97334 -39.2448
LeftForeArm  -17.4694 -56.5446 -18.6466
LeftHand  0.234249 2.49762 -10.1977
RightShoulder  2.1172 5.46215 17.6549
RightArm  2.89522 34.8271 53.0658
RightForeArm  0.541646 38.4188 8.85831
RightHand  0.0109076 -4.7176 7.41227
LeftUpLeg  -10.2045 -6.05528 -1.69795
LeftLeg  10.1203 -1.95002 1.93965
LeftFoot  -6.02828 -0.030436 1.43844
LeftToes  -9.4837e-011 -7.11147e-011 -1.07582e-011
